<svg xmlns="http://www.w3.org/2000/svg" width="218.863" height="35.89">
  <symbol id="logo" viewBox="0 0 218.863 35.89">
    <path d="M24.186-11.7V-23.272H.957V-11.7h7.4V12.226H17.2V-11.7ZM50.315-2.87V-8.22c0-11.92-2.668-15.27-10.411-15.27H36.859c-8.352,0-10.3,3.35-10.3,15.27V-2.87c0,11.963,1.943,15.27,10.3,15.27H39.9C48.227,12.4,50.315,9.094,50.315-2.87ZM41.673-3.3c0,2.436-.609,4.133-2.726,4.133H37.816C35.7.828,35.09-.259,35.09-3.3V-8c0-3.089,1.015-4.089,2.726-4.089h1.131c2.117,0,2.726,1.61,2.726,4.089Zm34.8,15.531V2.96c0-3.785-.957-6.656-2.523-8.614a14.257,14.257,0,0,0,1.972-7.483V-23.272H67.28v8.483c0,2.871-1.073,4.437-2.61,4.437H62.437v-12.92H53.795v35.5h8.642V.741H65.1c1.769,0,2.7,1.436,2.7,4.133v7.352ZM102.747-8.655V-23.272H94.511V-9.526c0,2.045-.725,2.958-2.088,2.958H89.494c-1.218,0-1.972-.827-1.972-2.958V-23.272H79.315V-8.655C79.315-.694,81,3.917,86.449,4.961v7.265h8.816V5C100.978,3.917,102.747-1.086,102.747-8.655Zm26.1,5.786V-8.22c0-11.92-2.668-15.27-10.411-15.27h-3.045c-8.352,0-10.295,3.35-10.295,15.27V-2.87c0,11.963,1.943,15.27,10.295,15.27h3.045C126.759,12.4,128.847,9.094,128.847-2.87ZM120.205-3.3c0,2.436-.609,4.133-2.726,4.133h-1.131c-2.117,0-2.726-1.088-2.726-4.133V-8c0-3.089,1.015-4.089,2.726-4.089h1.131c2.117,0,2.726,1.61,2.726,4.089ZM167.33-2.7V-23.359h-8V-3.174c0,2.828-.493,3.567-1.856,3.7V-23.359H151V.524c-1.45-.174-1.885-1.088-1.885-3.7V-23.359h-8.062V-2.7c0,10.963,2.813,14.878,9.889,14.878h6.177C164.169,12.182,167.33,7.615,167.33-2.7Zm25.375,14.922V1.089H180.612c-1.624,0-1.856-.783-1.856-2.393h12.9V-9.656H178.785c.174-1.827.725-2.393,1.827-2.393h12.093V-23.272h-13.63c-7.714,0-8.99,6.264-8.99,15.27V-1.26c0,8,2,13.486,8.9,13.486ZM219.82,1.872V.741a10,10,0,0,0-2.552-7.178,10.138,10.138,0,0,0,2-6v-1.175c0-7.787-2.784-9.7-7.859-9.7H196.446v35.5h15.718C218.08,12.182,219.82,7.571,219.82,1.872ZM210.192-11a1.3,1.3,0,0,1-1.131,1.262H205v-2.871h4.205a1,1,0,0,1,.986,1.131Zm.464,10.963c0,.783-.319,1.218-1.16,1.218H205V-2.13h4.727c.638,0,.928.392.928,1.088Z" transform="translate(-0.957 23.49)"/>
  </symbol>
</svg>